<?xml version="1.0" encoding="utf-8"?>
<!-- Generator: Adobe Illustrator 26.3.1, SVG Export Plug-In . SVG Version: 6.00 Build 0)  -->
<svg version="1.1" id="Layer_1" xmlns="http://www.w3.org/2000/svg" xmlns:xlink="http://www.w3.org/1999/xlink" x="0px" y="0px"
	 viewBox="0 0 298.44 99.17" style="enable-background:new 0 0 298.44 99.17;" xml:space="preserve">
<style type="text/css">
	.st0{fill:#003964;}
	.st1{fill:#ED1A3B;}
	.st2{fill:#58595B;}
</style>
<g>
	<g>
		<g>
			<g>
				<g>
					<g>
						<path class="st0" d="M76.57,47.32c-8.62-5.85-19.65-3.46-25.44,5.34C46.3,60.02,39,60.93,36.17,60.93
							c-9.21,0-15.52-6.48-17.39-13.19h0c-0.02-0.07-0.03-0.12-0.05-0.19c-0.01-0.07-0.04-0.15-0.06-0.23
							c-0.73-2.8-0.92-4.14-0.92-7.11c0-16.04,16.46-33.89,40.16-33.89c24.27,0,38.16,18.47,41.73,28.74
							c-0.06-0.18-0.11-0.36-0.18-0.54C92.58,14.44,73.53,0,51.11,0C22.89,0,0,22.88,0,51.1c0,25.23,18.2,46.82,43.44,46.82
							c20.13,0,33.66-11.29,39.86-26.84C86.71,62.58,84.3,52.58,76.57,47.32z"/>
					</g>
					<g>
						<path class="st1" d="M99.96,36.06C96.98,26.05,82.98,6.32,57.91,6.32c-23.7,0-40.16,17.86-40.16,33.89
							c0,2.97,0.18,4.31,0.92,7.11c-0.31-1.22-0.47-2.45-0.47-3.65c0-16.7,16.72-28.28,33.92-28.28c23.28,0,42.13,18.87,42.13,42.13
							c0,18.24-10.5,34.03-25.75,41.62l0,0.01c19.67-7.12,33.71-25.95,33.71-48.07C102.21,45.87,101.51,41.25,99.96,36.06z"/>
					</g>
				</g>
			</g>
		</g>
	</g>
	<g>
		<path class="st2" d="M151.44,28.09v2.52h-9.04v3.55h-2.86v-3.55h-9.22v-2.52H151.44z M132.02,25.74v-8.83h17.72v8.83H132.02z
			 M134.88,32.44v4.25h15.15v2.52h-18v-6.77H134.88z M146.91,19.38h-12.08v3.92h12.08V19.38z"/>
		<path class="st2" d="M167.1,26.93c0,0.7-0.15,1.37-0.44,2.01c-0.29,0.64-0.7,1.19-1.21,1.67c-0.5,0.46-1.09,0.83-1.78,1.11
			c-0.24,0.09-0.5,0.16-0.77,0.23v2.91h6.03v2.5h-14.91v-2.5h6.05v-2.91c-0.29-0.07-0.55-0.15-0.77-0.23
			c-0.69-0.27-1.29-0.64-1.8-1.11c-0.52-0.48-0.91-1.04-1.2-1.67c-0.28-0.64-0.42-1.3-0.42-2.01c0-0.7,0.14-1.37,0.42-2
			c0.28-0.63,0.68-1.18,1.2-1.66c0.51-0.48,1.12-0.85,1.8-1.11c0.69-0.26,1.42-0.39,2.19-0.39c0.77,0,1.5,0.13,2.19,0.39
			c0.69,0.26,1.28,0.63,1.78,1.11c0.52,0.48,0.92,1.03,1.21,1.66C166.96,25.56,167.1,26.23,167.1,26.93z M159.92,18.92v-2.45h3.09
			v2.45h5.41v2.45h-13.93v-2.45H159.92z M164.32,26.93c0-0.76-0.28-1.4-0.82-1.94c-0.55-0.54-1.22-0.81-2.01-0.81
			c-0.79,0-1.46,0.27-2.01,0.81c-0.55,0.54-0.82,1.19-0.82,1.94c0,0.76,0.27,1.41,0.82,1.96c0.55,0.55,1.22,0.82,2.01,0.82
			c0.79,0,1.46-0.27,2.01-0.82C164.05,28.34,164.32,27.69,164.32,26.93z M173.54,39.6h-2.86V16.63h2.86v9.66h2.94v2.68h-2.94V39.6z"
			/>
		<path class="st2" d="M177.9,21.49v-2.45h4.53V16.6h3.01v2.45h4.35v2.45h-4.97l5.28,14.22l-2.45,0.95l-3.73-10.25l-3.68,10.43
			l-2.52-0.93L183,21.49H177.9z M191.73,16.65h2.68v22.82h-2.68V28.06h-3.09v-2.58h3.09V16.65z M196.31,16.63h2.73V39.6h-2.73V16.63
			z"/>
		<path class="st2" d="M223.62,27.81v2.5h-4.71v2.16h3.01v7.19h-2.86v-4.69h-15.12v-2.5h3.27V30.3h-4.71v-2.5H223.62z M219.08,21.47
			c0,0.77-0.16,1.5-0.48,2.18c-0.32,0.68-0.75,1.27-1.3,1.79c-0.55,0.52-1.19,0.92-1.92,1.21c-0.73,0.29-1.51,0.44-2.33,0.44
			c-0.82,0-1.6-0.15-2.33-0.44c-0.73-0.29-1.37-0.7-1.92-1.21c-0.55-0.52-0.99-1.11-1.31-1.79c-0.33-0.68-0.49-1.4-0.49-2.18
			c0-0.77,0.16-1.5,0.49-2.18c0.33-0.68,0.76-1.27,1.31-1.76c0.55-0.52,1.19-0.92,1.92-1.22c0.73-0.3,1.51-0.45,2.33-0.45
			c0.82,0,1.6,0.15,2.33,0.45c0.73,0.3,1.37,0.71,1.92,1.22c0.55,0.5,0.98,1.09,1.3,1.76C218.92,19.97,219.08,20.7,219.08,21.47z
			 M216.25,21.47c0-0.88-0.31-1.61-0.94-2.21c-0.63-0.6-1.38-0.9-2.25-0.9c-0.88,0-1.63,0.3-2.25,0.9c-0.63,0.6-0.94,1.34-0.94,2.21
			c0,0.89,0.31,1.64,0.94,2.24c0.63,0.6,1.38,0.9,2.25,0.9c0.88,0,1.63-0.3,2.25-0.9C215.94,23.11,216.25,22.36,216.25,21.47z
			 M216.1,32.47V30.3h-6.08v2.16H216.1z"/>
		<path class="st2" d="M241.11,27.88v2.5h-14.91v-2.5h4.66v-5.13h2.83v5.13H241.11z M237.01,25.69v-6.1h-9.79v-2.5h12.6v8.6H237.01z
			 M227.82,39.22v-6.9h2.86v4.38h15.45v2.52H227.82z M245.72,31.72h-2.86V16.63h2.86v6.18h2.94v2.6h-2.94V31.72z"/>
		<path class="st2" d="M265.16,26.41v2.45h-14.91v-2.45h4.66v-4.2h2.83v4.2H265.16z M261.07,24.46v-4.95h-9.79v-2.45h12.6v7.39
			H261.07z M267.89,35.17c0,0.74-0.16,1.44-0.48,2.11c-0.32,0.67-0.74,1.25-1.28,1.73c-0.51,0.5-1.13,0.89-1.84,1.18
			c-0.71,0.29-1.47,0.44-2.28,0.44c-0.81,0-1.57-0.15-2.28-0.44c-0.71-0.29-1.34-0.69-1.87-1.18c-0.53-0.48-0.96-1.06-1.27-1.73
			c-0.32-0.67-0.48-1.37-0.48-2.11c0-0.74,0.16-1.44,0.48-2.11c0.32-0.67,0.74-1.25,1.27-1.75c0.53-0.48,1.16-0.87,1.87-1.16
			c0.71-0.29,1.47-0.44,2.28-0.44c0.81,0,1.57,0.15,2.28,0.44c0.71,0.29,1.33,0.68,1.84,1.16c0.53,0.5,0.96,1.08,1.28,1.75
			C267.74,33.73,267.89,34.43,267.89,35.17z M265.04,35.17c0-0.82-0.3-1.53-0.89-2.12c-0.59-0.59-1.3-0.89-2.12-0.89
			c-0.82,0-1.54,0.3-2.14,0.89c-0.6,0.59-0.9,1.3-0.9,2.12c0,0.82,0.3,1.53,0.9,2.12c0.6,0.59,1.31,0.89,2.14,0.89
			c0.82,0,1.53-0.3,2.12-0.89C264.74,36.7,265.04,36,265.04,35.17z M269.77,29.27h-2.86V16.63h2.86v4.92h2.94v2.58h-2.94V29.27z"/>
		<path class="st2" d="M274.67,31.15h21.12v2.52h-9.14v5.92h-2.86v-5.92h-9.12V31.15z M279.18,19.92h12.08v-2.91h2.83v11.05h-17.72
			V17.01h2.81V19.92z M291.26,22.4h-12.08v3.17h12.08V22.4z"/>
	</g>
	<g>
		<g>
			<path class="st2" d="M143.54,74.12v-4.85h-13.21v-3.66h30.59v3.66h-13.24v4.85h10.78v11.6h-4.14v-7.98h-21.9v-3.62H143.54z
				 M158.39,53.05v9.92h-4.14V56.7h-21.53v-3.66H158.39z"/>
			<path class="st2" d="M184.36,70.32h-17.94V60.17h13.47v-3.32h-13.47v-3.51h17.57v10.18h-13.47v3.36h13.84V70.32z M168.28,72.07
				h4.07v2.76h17.94v-2.76h4.07v12.91h-26.08V72.07z M190.29,78.19h-17.94v3.36h17.94V78.19z M190.21,52.37h4.14v18.58h-4.14V52.37z
				"/>
			<path class="st2" d="M213.23,74.12v-4.85h-13.21v-3.66h30.59v3.66h-13.24v4.85h10.78v11.6h-4.14v-7.98h-21.9v-3.62H213.23z
				 M228.08,53.05v9.92h-4.14V56.7h-21.53v-3.66H228.08z"/>
			<path class="st2" d="M254.57,66.33c0,1.32-0.27,2.57-0.82,3.77c-0.55,1.19-1.28,2.23-2.2,3.1c-0.92,0.9-2,1.6-3.23,2.13
				c-1.23,0.52-2.56,0.78-3.97,0.78c-1.39,0-2.71-0.26-3.94-0.78c-1.23-0.52-2.31-1.23-3.23-2.13c-0.92-0.87-1.65-1.9-2.2-3.1
				c-0.55-1.19-0.82-2.45-0.82-3.77c0-1.34,0.27-2.61,0.82-3.81c0.55-1.19,1.28-2.23,2.2-3.1c0.92-0.87,2-1.57,3.23-2.09
				c1.23-0.52,2.54-0.78,3.94-0.78c1.42,0,2.74,0.26,3.97,0.78c1.23,0.52,2.31,1.22,3.23,2.09c0.92,0.87,1.65,1.9,2.2,3.1
				C254.29,63.72,254.57,64.98,254.57,66.33z M250.46,66.33c0-0.85-0.16-1.63-0.49-2.37c-0.32-0.73-0.76-1.39-1.31-1.96
				c-0.57-0.52-1.23-0.95-1.96-1.29c-0.73-0.34-1.52-0.5-2.37-0.5c-0.82,0-1.6,0.17-2.35,0.5c-0.75,0.34-1.39,0.77-1.94,1.29
				c-0.55,0.57-0.99,1.23-1.33,1.96c-0.34,0.73-0.5,1.52-0.5,2.37c0,0.85,0.17,1.64,0.5,2.37c0.34,0.73,0.78,1.37,1.33,1.92
				c0.55,0.55,1.19,0.99,1.94,1.32c0.75,0.34,1.53,0.5,2.35,0.5c0.84,0,1.63-0.17,2.37-0.5c0.73-0.34,1.39-0.78,1.96-1.32
				c0.55-0.55,0.98-1.19,1.31-1.92C250.3,67.96,250.46,67.17,250.46,66.33z M259.9,52.37h4.14v33.28h-4.14v-17.5h-4.4V64.5h4.4
				V52.37z"/>
			<path class="st2" d="M291.69,72.37h-8.8v5.04h-4.14v-5.04h-9.18v-3.66h22.12V72.37z M271.84,85.09v-9.51h4.1v5.89h22.91v3.62
				H271.84z M288.74,59.69c0,1.07-0.22,2.06-0.67,2.98c-0.45,0.92-1.03,1.74-1.75,2.46c-0.77,0.7-1.66,1.24-2.67,1.64
				c-1.01,0.4-2.08,0.6-3.23,0.6c-1.14,0-2.22-0.2-3.23-0.6c-1.01-0.4-1.9-0.94-2.67-1.64c-0.72-0.72-1.31-1.54-1.75-2.46
				c-0.45-0.92-0.67-1.91-0.67-2.98c0-1.07,0.22-2.07,0.67-3c0.45-0.93,1.03-1.76,1.75-2.48c0.77-0.7,1.66-1.24,2.67-1.64
				c1.01-0.4,2.08-0.6,3.23-0.6c1.14,0,2.22,0.2,3.23,0.6c1.01,0.4,1.9,0.95,2.67,1.64c0.72,0.72,1.31,1.55,1.75,2.48
				C288.52,57.62,288.74,58.62,288.74,59.69z M284.75,59.69c0-1.19-0.43-2.19-1.29-3c-0.86-0.81-1.87-1.21-3.04-1.21
				c-1.17,0-2.18,0.4-3.04,1.21c-0.86,0.81-1.29,1.81-1.29,3c0,1.17,0.43,2.16,1.29,2.97c0.86,0.81,1.87,1.21,3.04,1.21
				c1.17,0,2.18-0.4,3.04-1.21C284.32,61.84,284.75,60.86,284.75,59.69z M294.34,52.37h4.1v25.41h-4.1V65.51h-4.63v-3.58h4.63V52.37
				z"/>
		</g>
	</g>
</g>
</svg>
