<?xml version="1.0" encoding="utf-8"?>
<!-- Generator: Adobe Illustrator 26.3.1, SVG Export Plug-In . SVG Version: 6.00 Build 0)  -->
<svg version="1.1" id="Layer_1" xmlns="http://www.w3.org/2000/svg" xmlns:xlink="http://www.w3.org/1999/xlink" x="0px" y="0px"
	 viewBox="0 0 46.68 46.68" style="enable-background:new 0 0 46.68 46.68;" xml:space="preserve">
<style type="text/css">
	.st0{fill:none;stroke:#003764;stroke-width:2;stroke-linejoin:round;stroke-miterlimit:10;}
</style>
<g>
	<circle class="st0" cx="23.34" cy="23.34" r="22.22"/>
	<g>
		<circle class="st0" cx="23.34" cy="16.3" r="5.66"/>
		<path class="st0" d="M33.93,34.1c-0.12-4.46-1.75-8.4-4.2-10.93c-0.04-0.06-0.1-0.11-0.16-0.17c-0.03,0.03-0.07,0.06-0.1,0.08
			c-1.57,1.42-3.62,2.31-5.87,2.37c-0.08,0.01-0.17,0.01-0.25,0.01s-0.17,0-0.25-0.01c-2.26-0.06-4.31-0.94-5.87-2.37
			c-0.03-0.02-0.07-0.04-0.1-0.08c-0.06,0.06-0.11,0.11-0.16,0.17c-2.46,2.53-4.08,6.47-4.2,10.93c-0.01,0.19-0.01,0.37-0.01,0.56
			c0,0.46,0.02,0.92,0.04,1.38h8.19h4.72h8.18c0.03-0.46,0.06-0.92,0.06-1.38C33.94,34.47,33.94,34.29,33.93,34.1z"/>
	</g>
</g>
</svg>
